<?xml version="1.0" encoding="UTF-8" standalone="no"?>
<svg xmlns="http://www.w3.org/2000/svg" xmlns:xlink="http://www.w3.org/1999/xlink" width="331.004mm" height="186.972mm" viewBox="-1006.246826 649.424133 331.004395 186.972473">
    <path transform="matrix(-1,0,0,1,-836.34137,655.091125)" style="stroke:#000000;stroke-width:0.050000mm;fill:none" d="M-107.132324,-2.76123C-108.181923,-2.69919,-109.155716,-2.193027,-109.80957,-1.369629C-110.67099,-0.229766,-110.629234,1.354836,-109.708984,2.447754C-109.071594,3.191083,-108.239189,3.741574,-107.305664,4.037109L-106.900879,4.166016C-105.887863,3.914252,-104.952042,3.418005,-104.175293,2.720703C-103.61013,2.222532,-103.239357,1.540162,-103.128906,0.794922C-103.011108,-0.443607,-103.637642,-1.634388,-104.725098,-2.23877C-105.453926,-2.658359,-106.295128,-2.84093,-107.132324,-2.76123z"/>
    <path transform="matrix(-1,0,0,1,-836.34137,655.091125)" style="stroke:#000000;stroke-width:0.050000mm;fill:none" d="M130.101563,-2.101563L129.739258,-2.09082C128.951706,-2.070217,128.188461,-1.812339,127.549805,-1.351074C126.922348,-0.854909,126.534088,-0.11652,126.480957,0.681641C126.403748,1.304455,126.498856,1.936732,126.755859,2.509277C127.09153,3.180459,127.680336,3.690395,128.392578,3.926758C128.942154,4.116398,129.520218,4.210044,130.101563,4.203613L132.578613,4.203613L132.578613,-2.101563L130.101563,-2.101563z"/>
    <path transform="matrix(-1,0,0,1,-836.34137,655.091125)" style="stroke:#000000;stroke-width:0.050000mm;fill:none" d="M150.255371,0.900879C149.972809,1.894838,149.634521,2.872169,149.242188,3.828125L146.87793,9.682617L153.708496,9.682617L151.34375,3.828125L151.214355,3.517578C150.865265,2.664704,150.570099,1.79076,150.330566,0.900879L150.255371,0.900879z"/>
    <path transform="matrix(-1,0,0,1,-836.34137,655.091125)" style="stroke:#000000;stroke-width:0.050000mm;fill:none" d="M87.392578,-2.101563L86.888672,-2.093262C85.155334,-2.068389,83.449181,-1.657531,81.894531,-0.890625C79.709877,0.203974,78.165482,2.261599,77.724609,4.665039C77.382164,6.394783,77.466286,8.181659,77.969727,9.871582C78.648865,12.021936,80.226624,13.772827,82.294922,14.671387C83.902466,15.369153,85.640358,15.715569,87.392578,15.6875L90.507324,15.6875L90.507324,-2.101563L87.392578,-2.101563z"/>
    <path transform="matrix(-1,0,0,1,-836.34137,655.091125)" style="stroke:#000000;stroke-width:0.050000mm;fill:none" d="M129.163574,7.280762L128.694336,7.296875C127.644592,7.341716,126.631149,7.695212,125.78125,8.312988C124.804314,9.070215,124.248108,10.248876,124.284668,11.484375C124.239815,12.729433,124.796783,13.920048,125.78125,14.683594C126.637009,15.286641,127.6483,15.629894,128.694336,15.672363L129.163574,15.6875L132.578613,15.6875L132.578613,7.280762L129.163574,7.280762z"/>
    <path transform="matrix(-1,0,0,1,-836.34137,655.091125)" style="stroke:#000000;stroke-width:0.050000mm;fill:none" d="M40.258301,-2.504883L39.848633,-2.475586C35.320709,-2.06533,31.810789,1.662623,31.673828,6.207031C31.552399,8.063359,31.968624,9.915591,32.872559,11.541504C35.254326,15.679981,40.451153,17.240467,44.71875,15.098633C47.347923,13.790086,49.159767,11.265205,49.557617,8.355469C49.853672,6.479299,49.622574,4.557668,48.890137,2.805176C47.384521,-0.577007,43.956028,-2.686119,40.258301,-2.504883z"/>
    <path transform="matrix(-1,0,0,1,-836.34137,655.091125)" style="stroke:#000000;stroke-width:0.050000mm;fill:none" d="M-106.851563,7.473633C-108.021484,7.832478,-109.097321,8.445929,-110.001953,9.27002C-110.551109,9.770599,-110.954887,10.410452,-111.17041,11.121582C-111.494949,12.410663,-111.131317,13.775628,-110.208496,14.732422C-109.2593,15.699255,-107.955315,16.234333,-106.600586,16.212891C-105.113472,16.23439,-103.699387,15.570018,-102.766602,14.411621C-101.649033,12.995594,-101.678802,10.989187,-102.837891,9.606934C-103.604462,8.72126,-104.579605,8.040621,-105.675293,7.626465C-105.929382,7.524207,-106.188126,7.433942,-106.450684,7.355957L-106.851563,7.473633z"/>
    <path transform="matrix(-1,0,0,1,-836.34137,655.091125)" style="stroke:#000000;stroke-width:0.050000mm;fill:none" d="M136.181641,18.765137L128.413086,18.765137C126.737251,18.7757,125.093857,18.303062,123.679688,17.403809C121.809868,16.204929,120.650513,14.160988,120.581055,11.940918C120.405319,9.143196,122.007057,6.538325,124.583008,5.432617L124.997559,5.291992L124.744141,5.165039C124.056412,4.735024,123.526932,4.093301,123.235352,3.336426C122.35833,1.203886,122.758942,-1.239617,124.270996,-2.980469C125.042419,-3.820299,126.019569,-4.444362,127.105957,-4.791016C127.878723,-5.047027,128.687393,-5.17807,129.501465,-5.179199L136.181641,-5.179199L136.181641,18.765137z"/>
    <path transform="matrix(-1,0,0,1,-836.34137,655.091125)" style="stroke:#000000;stroke-width:0.050000mm;fill:none" d="M-91.138184,5.179199L-78.791016,5.179199L-78.791016,-5.179199L-75.150391,-5.179199L-75.150391,18.765137L-78.791016,18.765137L-78.791016,8.293945L-91.138184,8.293945L-91.138184,18.765137L-94.778809,18.765137L-94.778809,-5.179199L-91.138184,-5.179199L-91.138184,5.179199z"/>
    <path transform="matrix(-1,0,0,1,-836.34137,655.091125)" style="stroke:#000000;stroke-width:0.050000mm;fill:none" d="M-117.55957,-4.954102L-116.921875,-2.101563L-121.875488,-2.589355L-121.875488,18.765137L-125.291016,18.765137L-125.291016,-5.666992L-117.55957,-4.954102z"/>
    <path transform="matrix(-1,0,0,1,-836.34137,655.091125)" style="stroke:#000000;stroke-width:0.050000mm;fill:none" d="M12.294922,-2.063965L4.601074,-2.063965L4.601074,18.765137L0.960449,18.765137L0.960449,-2.063965L-6.73291,-2.063965L-6.73291,-5.179199L12.294922,-5.179199L12.294922,-2.063965z"/>
    <path transform="matrix(-1,0,0,1,-836.34137,655.091125)" style="stroke:#000000;stroke-width:0.050000mm;fill:none" d="M24.041504,18.765137L9.85498,18.765137L9.85498,15.649902L20.401367,15.649902L20.401367,-5.179199L24.041504,-5.179199L24.041504,18.765137z"/>
    <path transform="matrix(-1,0,0,1,-836.34137,655.091125)" style="stroke:#000000;stroke-width:0.050000mm;fill:none" d="M-135.831543,-5.65918L-135.422363,-5.63623C-133.666031,-5.500787,-131.973679,-4.917054,-130.507324,-3.940918L-131.220703,-0.938477C-131.953506,-1.439534,-132.740356,-1.856547,-133.566406,-2.181641C-134.703674,-2.614779,-135.930817,-2.757748,-137.137207,-2.597656C-137.957947,-2.486687,-138.72612,-2.130673,-139.341309,-1.576172C-139.97467,-0.964249,-140.387772,-0.15985,-140.516113,0.711426C-140.681717,1.721365,-140.597046,2.756471,-140.269531,3.726074C-139.829315,5.026406,-139.230225,6.267402,-138.48584,7.420898C-137.4254,9.096394,-136.255325,10.700035,-134.983398,12.221191C-133.310242,14.237648,-131.567001,16.194893,-129.756836,18.089355L-129.756836,18.765137L-145.332031,18.765137L-145.332031,15.837891L-135.761719,15.837891L-136.023438,15.576172C-138.104538,13.453159,-139.95842,11.118996,-141.555176,8.611328C-142.355804,7.368345,-143.015503,6.039946,-143.521973,4.650879C-144.293533,2.582338,-144.220596,0.294009,-143.318848,-1.721191C-142.537262,-3.37059,-141.1073,-4.622717,-139.369141,-5.179688C-138.228882,-5.553308,-137.030106,-5.715791,-135.831543,-5.65918z"/>
    <path transform="matrix(-1,0,0,1,-836.34137,655.091125)" style="stroke:#000000;stroke-width:0.050000mm;fill:none" d="M69.865723,18.765137L55.641602,18.765137L55.641602,15.649902L66.225586,15.649902L66.225586,8.293945L58.456543,8.293945L58.456543,5.179199L66.225586,5.179199L66.225586,-2.063965L56.955566,-2.063965L56.955566,-5.179199L69.865723,-5.179199L69.865723,18.765137z"/>
    <path transform="matrix(-1,0,0,1,-836.34137,655.091125)" style="stroke:#000000;stroke-width:0.050000mm;fill:none" d="M94.110352,18.765137L86.754395,18.765137C84.098442,18.792023,81.486855,18.082672,79.209473,16.71582C76.180298,14.886798,74.200859,11.725474,73.878418,8.20166C73.679291,6.388175,73.866844,4.553086,74.428711,2.817383C75.269753,0.332497,76.963425,-1.774434,79.209473,-3.129883C81.487938,-4.494456,84.098679,-5.20357,86.754395,-5.179199L94.110352,-5.179199L94.110352,18.765137z"/>
    <path transform="matrix(-1,0,0,1,-836.34137,655.091125)" style="stroke:#000000;stroke-width:0.050000mm;fill:none" d="M-63.816406,0.825684L-63.37793,1.537109C-62.923626,2.273746,-62.494045,3.025272,-62.089844,3.790527L-62.015137,3.790527L-61.613281,3.052734C-61.183723,2.303322,-60.742073,1.560844,-60.288574,0.825684L-56.573242,-5.179199L-52.444824,-5.179199L-59.763184,6.643066L-52.106934,18.765137L-55.972656,18.765137C-57.385254,16.55127,-58.782959,14.334534,-60.171387,12.105957C-60.750557,11.189644,-61.302788,10.256336,-61.827148,9.307617L-61.902344,9.307617L-62.807617,10.897949L-63.741211,12.459961L-67.644531,18.765137L-71.772949,18.765137L-64.154297,6.41748L-71.435059,-5.179199L-67.569336,-5.179199L-63.816406,0.825684z"/>
    <path transform="matrix(-1,0,0,1,-836.34137,655.091125)" style="stroke:#000000;stroke-width:0.050000mm;fill:none" d="M161.101563,18.765137L157.536621,18.765137L154.946777,12.572754L145.63916,12.572754L143.049805,18.765137L139.371582,18.765137L149.580078,-5.51709L150.893555,-5.51709L161.101563,18.765137z"/>
    <path transform="matrix(-1,0,0,1,-836.34137,655.091125)" style="stroke:#000000;stroke-width:0.050000mm;fill:none" d="M-152.128906,-5.649414L-151.519531,-5.596191C-150.346283,-5.456631,-149.212463,-5.085154,-148.184082,-4.503418L-148.784668,-1.61377C-149.519913,-2.071146,-150.329544,-2.396719,-151.176758,-2.575684C-151.8685,-2.714532,-152.578186,-2.740914,-153.27832,-2.653809C-154.133469,-2.551976,-154.89827,-2.071976,-155.361816,-1.346191C-155.90303,-0.414503,-155.83934,0.749619,-155.199707,1.616699C-154.637833,2.353131,-153.891602,2.92792,-153.036133,3.283203C-152.479568,3.52967,-151.896927,3.71247,-151.299316,3.828125L-151.974609,6.643066L-152.175293,6.621094C-154.298279,6.424443,-156.320053,7.566813,-157.24707,9.486816C-157.725189,10.595124,-157.768417,11.842209,-157.368164,12.980957C-156.978516,14.093846,-156.163574,15.007153,-155.102051,15.520508C-154.048386,16.033257,-152.876389,16.253325,-151.708496,16.157715C-150.364319,16.064709,-149.057785,15.673394,-147.883789,15.012207L-148.671875,18.464844C-150.332214,19.109901,-152.128342,19.326857,-153.894531,19.095703C-155.328018,18.962086,-156.710846,18.496847,-157.933594,17.736816C-159.744675,16.568501,-160.901886,14.616836,-161.058105,12.467285C-161.229782,10.818312,-160.896759,9.156217,-160.103027,7.700684C-159.220505,6.130692,-157.735062,4.989363,-155.990723,4.541016L-156.273438,4.445801C-157.144989,4.05547,-157.870422,3.399096,-158.345703,2.570801C-159.284134,1.054398,-159.403397,-0.830537,-158.663574,-2.453125C-158.175293,-3.454711,-157.38208,-4.275776,-156.397949,-4.79834C-155.278549,-5.38903,-154.028214,-5.687799,-152.762695,-5.666992L-152.128906,-5.649414z"/>
    <path transform="matrix(-1,0,0,1,-836.34137,655.091125)" style="stroke:#000000;stroke-width:0.050000mm;fill:none" d="M105.218262,-5.654785C108.613564,-5.520358,111.834358,-4.115845,114.243164,-1.719238C116.08979,0.178875,117.234184,2.650074,117.487305,5.286133C117.705879,7.203906,117.503075,9.14628,116.893066,10.977539C115.994949,13.544147,114.235336,15.720291,111.913574,17.135742C109.569725,18.584789,106.849152,19.306898,104.095215,19.210938C102.790222,19.223036,101.488602,19.073788,100.220215,18.766602C99.584763,18.598177,98.970352,18.358545,98.388672,18.052246L97.638184,14.561523C98.90789,15.27208,100.305016,15.725513,101.75,15.895996C103.170212,16.113245,104.614693,16.120811,106.037109,15.918457C108.118309,15.612829,110.042618,14.635498,111.51709,13.135254C112.854858,11.706669,113.67099,9.867929,113.833008,7.91748C114.013687,6.300275,113.807663,4.663139,113.231934,3.141113C112.370461,0.995589,110.688461,-0.717521,108.559082,-1.618164C106.488625,-2.507688,104.19632,-2.745622,101.987305,-2.300293C100.665176,-2.078942,99.394676,-1.617379,98.23877,-0.938477L97.600586,-4.09082C98.922737,-4.802559,100.36274,-5.269051,101.851074,-5.467773C102.965561,-5.631371,104.092514,-5.693963,105.218262,-5.654785z"/>
    <path transform="matrix(-1,0,0,1,-836.34137,655.091125)" style="stroke:#000000;stroke-width:0.050000mm;fill:none" d="M-42.479004,-5.657715C-42.179626,-5.646119,-41.880856,-5.622008,-41.583496,-5.585449C-40.192101,-5.446353,-38.865067,-4.929083,-37.746582,-4.089844C-36.394699,-3.037086,-35.543243,-1.46797,-35.397461,0.239258C-35.27494,1.425977,-35.491314,2.623147,-36.021484,3.691895C-36.49062,4.584304,-37.149788,5.362806,-37.952637,5.972656C-38.917347,6.698024,-39.985104,7.274856,-41.120605,7.684082L-42.421875,8.137695C-43.287773,8.429596,-44.091946,8.879784,-44.793457,9.465332C-45.627716,10.186916,-46.094482,11.245022,-46.064941,12.347656C-46.090012,13.656803,-45.37043,14.867528,-44.208496,15.471191C-43.413574,15.879134,-42.529503,16.082529,-41.63623,16.062988C-39.386414,16.054386,-37.18536,15.405165,-35.291016,14.191406C-34.998005,14.011456,-34.710922,13.82208,-34.430176,13.623535L-35.255859,17.601563C-36.43906,18.315247,-37.749264,18.792603,-39.114258,19.007324C-41.079147,19.378458,-43.104485,19.270088,-45.018555,18.691406C-46.431011,18.259832,-47.661285,17.373268,-48.517578,16.169922C-49.258236,15.05206,-49.667061,13.747373,-49.696777,12.406738C-49.792767,11.020753,-49.468575,9.63788,-48.766602,8.438965C-48.245708,7.603902,-47.565277,6.87983,-46.76416,6.308105C-45.752098,5.595735,-44.65115,5.01908,-43.489258,4.592773L-42.266602,4.149414C-41.374863,3.8385,-40.553066,3.354583,-39.848633,2.725586C-39.313362,2.252305,-38.967255,1.601035,-38.874512,0.892578C-38.763126,-0.335455,-39.39502,-1.511634,-40.480469,-2.09668C-41.303066,-2.536675,-42.234688,-2.730729,-43.164551,-2.655762C-44.621899,-2.580219,-46.037815,-2.145648,-47.286621,-1.390625L-47.453125,-1.275879L-48.166504,-4.27832C-47.329208,-4.8257,-46.393608,-5.205278,-45.411621,-5.395996C-44.449604,-5.610307,-43.463757,-5.698287,-42.479004,-5.657715z"/>
    <path transform="matrix(-1,0,0,1,-836.34137,655.091125)" style="stroke:#000000;stroke-width:0.050000mm;fill:none" d="M-106.343262,-5.659668L-105.97998,-5.638184C-104.852783,-5.557475,-103.756821,-5.231707,-102.768555,-4.683594C-101.686943,-4.084962,-100.821632,-3.160358,-100.295898,-2.041504C-98.996086,0.781667,-100.166679,4.128047,-102.942871,5.525391L-103.260742,5.666992L-102.949707,5.805176C-101.285278,6.618207,-99.960541,7.991168,-99.20752,9.683594C-98.264481,12.018598,-98.695099,14.682995,-100.325684,16.602051C-101.394829,17.781927,-102.804184,18.600233,-104.358887,18.943848C-106.528824,19.469791,-108.812531,19.248753,-110.841309,18.316406C-112.497955,17.556543,-113.774483,16.155205,-114.376953,14.435059C-115.171799,12.129375,-114.677261,9.574101,-113.07959,7.731445C-112.308922,6.795207,-111.321854,6.060855,-110.203613,5.591797L-110.508789,5.445313C-112.111252,4.62756,-113.253159,3.123595,-113.610352,1.360352C-113.99733,-0.848707,-113.056358,-3.080542,-111.20459,-4.345703C-110.291214,-4.970692,-109.249474,-5.382952,-108.155762,-5.552246C-107.556656,-5.648161,-106.949501,-5.684145,-106.343262,-5.659668z"/>
    <path transform="matrix(-1,0,0,1,-836.34137,655.091125)" style="stroke:#000000;stroke-width:0.050000mm;fill:none" d="M41.265137,-5.65332C44.903004,-5.500931,48.308559,-3.824825,50.648438,-1.035156C52.284252,0.972416,53.22657,3.455576,53.334473,6.042969C53.473854,8.290463,53.011517,10.534571,51.995117,12.543945C50.572735,15.239118,48.202278,17.311592,45.341309,18.361328C40.55975,20.17877,35.158695,19.056803,31.496582,15.485352C29.364933,13.350152,28.11647,10.489495,28.000488,7.474609C27.860901,5.237762,28.32341,3.004296,29.339844,1.006836C30.767021,-1.684022,33.13588,-3.75423,35.993652,-4.808105C37.674835,-5.446193,39.468739,-5.733823,41.265137,-5.65332z"/>
    <path transform="matrix(-1,0,0,1,-836.34137,655.091125)" style="stroke:#000000;stroke-width:0.050000mm;fill:none" d="M-27.187012,6.816895L-27.190918,8.209961C-27.193703,9.401653,-27.217476,10.59379,-27.262207,11.784668L-27.187012,11.822266L-26.904785,11.477539C-25.362305,9.643768,-23.779785,7.844238,-22.158203,6.080078L-11.874512,-5.179199L-9.360352,-5.179199L-9.360352,18.765137L-13.000488,18.765137C-13.011963,14.09055,-13.010498,9.312723,-12.996582,4.637695C-12.992065,3.34182,-12.968292,2.045598,-12.925293,0.750488L-13.000488,0.712891L-13.637695,1.464355C-15.011215,3.085831,-16.409622,4.687454,-17.831055,6.26709L-29.739258,19.290527L-30.827637,19.290527L-30.827637,-5.179199L-27.187012,-5.179199L-27.187012,6.816895z"/>
    <path transform="translate(-976.741699,729.514221)" style="stroke:#000000;stroke-width:0.050000mm;fill:none" d="M0,-31.02356L7.294076,-10.039435L29.505159,-9.586806L11.802063,3.834723L18.235189,25.098589L-0.000001,12.409424L-18.235195,25.098585L-11.802063,3.834724L-29.505157,-9.586811L-7.294073,-10.039438L0,-31.02356z"/>
    <circle transform="matrix(-1,0,0,1,-914.69458,733.557068)" style="stroke:#000000;stroke-width:0.050000mm;fill:none" r="24.018188" cx="0" cy="0"/>
    <path transform="translate(-852.647461,735.558594)" style="stroke:#000000;stroke-width:0.050000mm;fill:none" d="M30.333883,17.513273L-0.000003,-35.02655L-30.333876,17.513288L30.333883,17.513273z"/>
    <rect transform="matrix(-1,0,0,1,-962.230713,810.996582)" style="stroke:#000000;stroke-width:0.050000mm;fill:none" x="-38.099998" y="-25.4" width="76.199997" height="50.799999"/>
    <rect transform="matrix(-1,0,0,1,-888.674866,810.61554)" style="stroke:#000000;stroke-width:0.050000mm;fill:none" x="-25.400015" y="-25.4" width="50.80003" height="50.799999"/>
</svg>
